{"title":"Misfire(2014)1080p.BluRay.H264.AAC.Raven","uid":11220306,"size":1335871252,"categoryP":"video","categoryS":"hd___movies","magnet":"?xt=urn:btih:ece705d76a7772adeedf535e4c49f5b719af85f6&amp;dn=Misfire%282014%291080p.BluRay.H264.AAC.Raven&amp;tr=udp%3A%2F%2Ftracker.openbittorrent.com%3A80&amp;tr=udp%3A%2F%2Fopen.demonii.com%3A1337&amp;tr=udp%3A%2F%2Ftracker.coppersurfer.tk%3A6969&amp;tr=udp%3A%2F%2Fexodus.desync.com%3A6969","seeders":1,"leechers":0,"uploader":"Raven1969","files":-1,"time":1413373923,"description":"Misfire(2014)1080p.BluRay.H264.AAC.Raven.mp4\n\nEnglish, Indonesian and  Arabic subs included.\n\n\n\nScreen images:\n\n\n &lt;a href=&quot;\nhttp://i.imgur.com/KaI0Fc9.png&quot; rel=&quot;nofollow&quot; target=&quot;_NEW&quot;&gt;\nhttp://i.imgur.com/KaI0Fc9.png&lt;/a&gt;\n\n &lt;a href=&quot;\nhttp://i.imgur.com/zqdXlMS.png&quot; rel=&quot;nofollow&quot; target=&quot;_NEW&quot;&gt;\nhttp://i.imgur.com/zqdXlMS.png&lt;/a&gt;\n\n &lt;a href=&quot;\nhttp://i.imgur.com/m7XBSy5.png&quot; rel=&quot;nofollow&quot; target=&quot;_NEW&quot;&gt;\nhttp://i.imgur.com/m7XBSy5.png&lt;/a&gt;\n\n &lt;a href=&quot;\nhttp://i.imgur.com/WEI7bxh.png&quot; rel=&quot;nofollow&quot; target=&quot;_NEW&quot;&gt;\nhttp://i.imgur.com/WEI7bxh.png&lt;/a&gt;\n\n &lt;a href=&quot;\nhttp://i.imgur.com/bPKIf2u.png&quot; rel=&quot;nofollow&quot; target=&quot;_NEW&quot;&gt;\nhttp://i.imgur.com/bPKIf2u.png&lt;/a&gt;\n\n &lt;a href=&quot;\nhttp://i.imgur.com/luvkx79.png&quot; rel=&quot;nofollow&quot; target=&quot;_NEW&quot;&gt;\nhttp://i.imgur.com/luvkx79.png&lt;/a&gt;\n &lt;a href=&quot;\nhttp://www.imdb.com/title/tt3207160&quot; rel=&quot;nofollow&quot; target=&quot;_NEW&quot;&gt;\nhttp://www.imdb.com/title/tt3207160&lt;/a&gt;\n\n\n\n\nIMDB Rating:  4.3\n\n\n\n\nStoryline:\n\nHardened DEA agent, Cole, descends into the dangerous underworld of Tijuana, Mexico in search of his journalist ex-wife who he believes has been abducted by a charismatic Cartel boss with aspirations for public office.\n\n\n\n\nGeneral\nFormat                                   : MPEG-4\nFormat profile                           : Base Media\nCodec ID                                 : isom\nFile size                                : 1.24 GiB\nDuration                                 : 1h 28mn\nOverall bit rate mode                    : Variable\nOverall bit rate                         : 1 995 Kbps\nEncoded date                             : UTC 2014-10-15 06:46:41\nTagged date                              : UTC 2014-10-15 06:46:41\n\nVideo\nID                                       : 1\nFormat                                   : AVC\nFormat/Info                              : Advanced Video Codec\nFormat profile                           : &lt;a class=&quot;__cf_email__&quot; href=&quot;/cdn-cgi/l/email-protection&quot; data-cfemail=&quot;7830111f1038344c5648&quot;&gt;[email&amp;#160;protected]&lt;/a&gt;&lt;script cf-hash='f9e31' type=&quot;text/javascript&quot;&gt;\n/* &lt;![CDATA[ */!function(){try{var t=&quot;currentScript&quot;in document?document.currentScript:function(){for(var t=document.getElementsByTagName(&quot;script&quot;),e=t.length;e--;)if(t[e].getAttribute(&quot;cf-hash&quot;))return t[e]}();if(t&amp;&amp;t.previousSibling){var e,r,n,i,c=t.previousSibling,a=c.getAttribute(&quot;data-cfemail&quot;);if(a){for(e=&quot;&quot;,r=parseInt(a.substr(0,2),16),n=2;a.length-n;n+=2)i=parseInt(a.substr(n,2),16)^r,e+=String.fromCharCode(i);e=document.createTextNode(e),c.parentNode.replaceChild(e,c)}}}catch(u){}}();/* ]]&gt; */&lt;/script&gt;\nFormat settings, CABAC                   : Yes\nFormat settings, ReFrames                : 5 frames\nCodec ID                                 : avc1\nCodec ID/Info                            : Advanced Video Coding\nDuration                                 : 1h 28mn\nBit rate                                 : 1 900 Kbps\nMaximum bit rate                         : 11.1 Mbps\nWidth                                    : 1 920 pixels\nHeight                                   : 800 pixels\nDisplay aspect ratio                     : 2.40:1\nFrame rate mode                          : Constant\nFrame rate                               : 23.976 fps\nColor space                              : YUV\nChroma subsampling                       : 4:2:0\nBit depth                                : 8 bits\nScan type                                : Progressive\nBits/(Pixel*Frame)                       : 0.052\nStream size                              : 1.18 GiB (95%)\nWriting library                          : x264 core 132 \nEncoded date                             : UTC 2014-10-15 06:46:41\nTagged date                              : UTC 2014-10-15 06:46:53\n\nAudio\nID                                       : 2\nFormat                                   : AAC\nFormat/Info                              : Advanced Audio Codec\nFormat profile                           : LC\nCodec ID                                 : 40\nDuration                                 : 1h 28mn\nBit rate mode                            : Variable\nBit rate                                 : 92.0 Kbps\nMaximum bit rate                         : 153 Kbps\nChannel(s)                               : 2 channels\nChannel positions                        : Front: L R\nSampling rate                            : 48.0 KHz\nCompression mode                         : Lossy\nStream size                              : 58.5 MiB (5%)\nEncoded date                             : UTC 2014-10-15 05:19:25\nTagged date                              : UTC 2014-10-15 06:46:53\n\n\n\n\nPLEASE  SEED FOR AS LONG AS POSSIBLE TO KEEP THE TORRENT ALIVE :-)","torrent":{"xt":"urn:btih:ece705d76a7772adeedf535e4c49f5b719af85f6","amp;dn":"Misfire%282014%291080p.BluRay.H264.AAC.Raven","amp;tr":["udp%3A%2F%2Ftracker.openbittorrent.com%3A80","udp%3A%2F%2Fopen.demonii.com%3A1337","udp%3A%2F%2Ftracker.coppersurfer.tk%3A6969","udp%3A%2F%2Fexodus.desync.com%3A6969"],"infoHash":"ece705d76a7772adeedf535e4c49f5b719af85f6","infoHashBuffer":{"type":"Buffer","data":[236,231,5,215,106,119,114,173,238,223,83,94,76,73,245,183,25,175,133,246]},"announce":[],"urlList":[]}}